<svg xmlns="http://www.w3.org/2000/svg" width="512" height="512" viewBox="0 0 512 512">
  <path d="M140,400 Q256,385 372,400 L390,512 L122,512 Z" fill="#78350f" opacity="0.3"/>
  <path d="M140.5,419.5 L372.5,419.5 Q380,450 380,512 L132,512 Q132,450 140.5,419.5 Z" fill="#92400e" />
  <path d="M170,195 L145,130 Q170,110 205,150 Z" fill="#92400e" />
  <path d="M170,195 L155,150 Q175,135 185,175 Z" fill="#78350f" opacity="0.4"/>
  <path d="M342,195 L367,130 Q342,110 307,150 Z" fill="#92400e" />
  <path d="M342,195 L357,150 Q337,135 327,175 Z" fill="#78350f" opacity="0.4"/>
  <path d="M256,125 Q135,125 135,245 Q135,340 256,340 Q377,340 377,245 Q377,125 256,125 Z" fill="#92400e" />
  <path d="M256,135 Q150,135 150,230 Q150,260 256,260 Z" fill="#b45309" opacity="0.2"/>
  <path d="M256,245 Q310,245 325,285 Q325,315 256,330 Q187,315 187,285 Q195,245 256,245 Z" fill="#d7ccc8" />
  <path d="M244,282 Q256,274 268,282 Q274,290 256,298 Q238,290 244,282 Z" fill="#1e293b" />
  <path d="M252,284 Q256,281 260,284" fill="#ffffff" opacity="0.3"/>
</svg>