<svg xmlns="http://www.w3.org/2000/svg" width="512" height="512" viewBox="0 0 512 512">
  <path d="M140,320 Q256,320 372,320 L390,512 L122,512 Z" fill="#991b1b" opacity="0.3"/>
  <path d="M150,330 Q256,330 362,330 L380,512 L132,512 Z" fill="#dc2626" />
  <path d="M170,195 L145,130 Q170,110 205,150 Z" fill="#dc2626" />
  <path d="M170,195 L155,150 Q175,135 185,175 Z" fill="#991b1b" opacity="0.4"/>
  <path d="M342,195 L367,130 Q342,110 307,150 Z" fill="#dc2626" />
  <path d="M342,195 L357,150 Q337,135 327,175 Z" fill="#991b1b" opacity="0.4"/>
  <path d="M256,125 Q135,125 135,245 Q135,340 256,340 Q377,340 377,245 Q377,125 256,125 Z" fill="#dc2626" />
  <path d="M256,135 Q150,135 150,230 Q150,260 256,260 Z" fill="#ef4444" opacity="0.2"/>
  <path d="M256,245 Q310,245 325,285 Q325,315 256,330 Q187,315 187,285 Q195,245 256,245 Z" fill="#fee2e2" />
  <path d="M244,282 Q256,274 268,282 Q274,290 256,298 Q238,290 244,282 Z" fill="#1e293b" />
  <path d="M252,284 Q256,281 260,284" fill="#ffffff" opacity="0.3"/>
</svg>